<?xml version="1.0"?>
<svg width="512" height="512" xmlns="http://www.w3.org/2000/svg" xmlns:svg="http://www.w3.org/2000/svg" clip-rule="evenodd" fill-rule="evenodd" version="1.1">
 <g class="layer">
  <title>Layer 1</title>
  <g id="svg_1">
   <path d="m407.5,186.5c-0.19,14.87 -2.02,29.53 -5.5,44c-9.32,29.64 -21.65,57.97 -37,85c-31.66,53.31 -66.82,104.15 -105.5,152.5c-2.98,0.5 -5.98,0.67 -9,0.5c-2.56,-1.04 -4.72,-2.71 -6.5,-5c-37.8,-49.15 -72.47,-100.48 -104,-154c-13.39,-23.49 -24.05,-48.16 -32,-74c-15.83,-60.2 -1.66,-112.03 42.5,-155.5c40.81,-34.11 87.48,-45.77 140,-35c50.88,12.85 86.71,43.35 107.5,91.5c6.29,16.08 9.46,32.74 9.5,50zm-158,-56c24.23,-0.97 42.73,8.7 55.5,29c14.49,32.56 6.99,58.72 -22.5,78.5c-22.23,10.27 -43.23,8.27 -63,-6c-23.65,-23.08 -27.15,-48.92 -10.5,-77.5c10.43,-13.28 23.93,-21.28 40.5,-24z" fill="#ffffff" id="svg_2"/>
  </g>
  <g id="svg_3" transform="matrix(1 0 0 1 0 0)">
   <path d="m326.5,82.5c31.38,76.43 27.55,151.1 -11.5,224c-22.54,39.37 -53.7,69.71 -93.5,91c-24.65,-33.84 -47.15,-69.18 -67.5,-106c-15.46,-27.57 -25.79,-56.91 -31,-88c-3,-53.83 18.16,-95 63.5,-123.5c34.63,-18.73 70.96,-22.73 109,-12c10.87,3.77 21.2,8.6 31,14.5zm-77,48c-16.57,2.72 -30.07,10.72 -40.5,24c-16.65,28.58 -13.15,54.42 10.5,77.5c19.77,14.27 40.77,16.27 63,6c29.49,-19.78 36.99,-45.94 22.5,-78.5c-12.77,-20.3 -31.27,-29.97 -55.5,-29z" fill="#ffffff" id="svg_4"/>
  </g>
  <g id="svg_5">
   <path d="m326.5,84.5c44.25,30.17 64.08,72.17 59.5,126c-4.6,24.8 -12.6,48.47 -24,71c-17.32,33.33 -36.66,65.33 -58,96c-16.09,22.51 -32.42,44.84 -49,67c-11.66,-14.67 -22.83,-29.67 -33.5,-45c39.8,-21.29 70.96,-51.63 93.5,-91c39.05,-72.9 42.88,-147.57 11.5,-224z" fill="#ffffff" id="svg_6"/>
  </g>
  <g id="svg_7" transform="matrix(1 0 0 1 0 0)">
   <path d="m241.5,110.5c40.01,-3.76 68.85,12.24 86.5,48c11.49,35.19 3.66,65.36 -23.5,90.5c-21.45,15.56 -45.12,20.22 -71,14c-39.79,-15.06 -58.29,-43.89 -55.5,-86.5c7.83,-34.99 29,-56.99 63.5,-66zm8,20c-16.57,2.72 -30.07,10.72 -40.5,24c-16.65,28.58 -13.15,54.42 10.5,77.5c19.77,14.27 40.77,16.27 63,6c29.49,-19.78 36.99,-45.94 22.5,-78.5c-12.77,-20.3 -31.27,-29.97 -55.5,-29z" fill="#ffffff" id="svg_8"/>
  </g>
  <g id="svg_9">
   <path d="m407.5,186.5c1.81,17.21 -0.02,34.21 -5.5,51c-9.58,29.41 -22.25,57.41 -38,84c-30.84,51.52 -65,100.69 -102.5,147.5c-3.93,2.13 -7.59,1.96 -11,-0.5c3.02,0.17 6.02,0 9,-0.5c38.68,-48.35 73.84,-99.19 105.5,-152.5c15.35,-27.03 27.68,-55.36 37,-85c3.48,-14.47 5.31,-29.13 5.5,-44z" fill="#ffffff" id="svg_10" opacity="0.98"/>
  </g>
 </g>
</svg>