<?xml version="1.0" encoding="UTF-8"?>
<!DOCTYPE svg PUBLIC "-//W3C//DTD SVG 1.1//EN" "http://www.w3.org/Graphics/SVG/1.1/DTD/svg11.dtd">
<svg xmlns="http://www.w3.org/2000/svg" version="1.1" width="512px" height="512px" style="shape-rendering:geometricPrecision; text-rendering:geometricPrecision; image-rendering:optimizeQuality; fill-rule:evenodd; clip-rule:evenodd" xmlns:xlink="http://www.w3.org/1999/xlink">
<g><path style="opacity:0.999" fill="#0d47a2" d="M 407.5,186.5 C 407.308,201.367 405.475,216.034 402,230.5C 392.681,260.139 380.348,288.472 365,315.5C 333.344,368.812 298.177,419.646 259.5,468C 256.518,468.498 253.518,468.665 250.5,468.5C 247.944,467.457 245.777,465.79 244,463.5C 206.201,414.352 171.535,363.019 140,309.5C 126.614,286.009 115.948,261.343 108,235.5C 92.1717,175.3 106.338,123.467 150.5,80C 191.31,45.8941 237.977,34.2275 290.5,45C 341.379,57.8519 377.213,88.3519 398,136.5C 404.29,152.576 407.457,169.242 407.5,186.5 Z M 249.5,130.5 C 273.732,129.53 292.232,139.197 305,159.5C 319.488,192.057 311.988,218.223 282.5,238C 260.272,248.267 239.272,246.267 219.5,232C 195.848,208.917 192.348,183.083 209,154.5C 219.432,141.218 232.932,133.218 249.5,130.5 Z"/></g>
<g><path style="opacity:1" fill="#1d87e4" d="M 326.5,82.5 C 357.883,158.931 354.049,233.598 315,306.5C 292.463,345.872 261.297,376.206 221.5,397.5C 196.855,363.656 174.355,328.323 154,291.5C 138.542,263.929 128.209,234.595 123,203.5C 119.996,149.669 141.163,108.502 186.5,80C 221.13,61.2732 257.464,57.2732 295.5,68C 306.372,71.7705 316.705,76.6038 326.5,82.5 Z M 249.5,130.5 C 232.932,133.218 219.432,141.218 209,154.5C 192.348,183.083 195.848,208.917 219.5,232C 239.272,246.267 260.272,248.267 282.5,238C 311.988,218.223 319.488,192.057 305,159.5C 292.232,139.197 273.732,129.53 249.5,130.5 Z"/></g>
<g><path style="opacity:1" fill="#1875d1" d="M 326.5,82.5 C 370.747,112.672 390.58,154.672 386,208.5C 381.4,233.301 373.4,256.967 362,279.5C 344.677,312.829 325.344,344.829 304,375.5C 287.911,398.011 271.578,420.344 255,442.5C 243.337,427.827 232.17,412.827 221.5,397.5C 261.297,376.206 292.463,345.872 315,306.5C 354.049,233.598 357.883,158.931 326.5,82.5 Z"/></g>
<g><path style="opacity:1" fill="#0d48a2" d="M 241.5,110.5 C 281.512,106.737 310.346,122.737 328,158.5C 339.493,193.695 331.66,223.862 304.5,249C 283.047,264.557 259.38,269.224 233.5,263C 193.713,247.945 175.213,219.112 178,176.5C 185.828,141.508 206.995,119.508 241.5,110.5 Z M 249.5,130.5 C 232.932,133.218 219.432,141.218 209,154.5C 192.348,183.083 195.848,208.917 219.5,232C 239.272,246.267 260.272,248.267 282.5,238C 311.988,218.223 319.488,192.057 305,159.5C 292.232,139.197 273.732,129.53 249.5,130.5 Z"/></g>
<g><path style="opacity:0.984" fill="#1c7ed9" d="M 407.5,186.5 C 409.31,203.708 407.477,220.708 402,237.5C 392.42,266.913 379.753,294.913 364,321.5C 333.161,373.022 298.995,422.189 261.5,469C 257.575,471.126 253.909,470.96 250.5,468.5C 253.518,468.665 256.518,468.498 259.5,468C 298.177,419.646 333.344,368.812 365,315.5C 380.348,288.472 392.681,260.139 402,230.5C 405.475,216.034 407.308,201.367 407.5,186.5 Z"/></g>
</svg>
