<?xml version="1.0"?>
<svg width="997" height="1280" xmlns="http://www.w3.org/2000/svg" xmlns:svg="http://www.w3.org/2000/svg" preserveAspectRatio="xMidYMid meet" version="1.0">
 <metadata>Created by potrace 1.15, written by Peter Selinger 2001-2017</metadata>
 <g class="layer">
  <title>Layer 1</title>
  <g fill="#0bc858" id="svg_1" transform="matrix(0.1 0 0 -0.1 0 0)">
   <path d="m3045,-18c-27,-10 -230,-122 -450,-248c-220,-127 -506,-291 -635,-364c-301,-171 -350,-219 -382,-374c-23,-106 -15,-124 273,-615c480,-820 1464,-2453 1505,-2500c54,-59 132,-106 213,-127c113,-28 117,-27 650,279c262,151 553,318 648,371c236,134 298,204 325,370c21,129 12,151 -211,521c-1045,1729 -1554,2566 -1580,2597c-73,87 -245,131 -356,90z" fill="#ffffff" id="svg_2"/>
   <path d="m1193,-1360c-530,-152 -892,-537 -1069,-1139c-285,-967 -66,-2490 601,-4181c675,-1710 1696,-3334 2810,-4469c954,-971 1864,-1506 2775,-1632c127,-18 508,-18 625,-1c218,33 412,85 604,161c86,35 177,76 189,86c5,4 -872,1531 -975,1695c-105,168 -311,504 -630,1030c-170,279 -140,257 -293,219c-128,-31 -394,-34 -545,-5c-331,61 -711,251 -1050,523c-139,111 -397,363 -527,513c-197,228 -397,506 -563,785c-101,170 -151,270 -218,440c-168,426 -272,819 -323,1220c-25,198 -23,540 5,722c53,353 178,647 377,890c30,36 52,68 50,72c-2,3 -56,95 -120,204c-168,286 -414,732 -816,1477c-492,914 -776,1420 -795,1419c-5,0 -56,-13 -112,-29z" fill="#ffffff" id="svg_3"/>
   <path d="m7690,-8114c-19,-8 -237,-130 -485,-273c-247,-143 -533,-306 -635,-363c-199,-113 -268,-169 -308,-251c-51,-105 -48,-215 7,-313c701,-1244 1679,-2927 1734,-2984c18,-18 61,-48 97,-65c59,-29 73,-32 160,-32l96,0l159,92c88,50 385,220 660,377c275,158 512,299 528,314c41,38 76,95 98,160c22,63 26,199 7,253c-6,19 -100,185 -208,369c-109,184 -403,688 -655,1120c-656,1125 -854,1460 -887,1502c-18,23 -55,50 -96,70c-57,28 -78,33 -152,35c-53,2 -98,-3 -120,-11z" fill="#ffffff" id="svg_4"/>
  </g>
 </g>
</svg>